<svg height="512pt" viewBox="-5 0 512 512.001" width="512pt" xmlns="http://www.w3.org/2000/svg"><path d="m492.980469 431.75h-417.070313v-146.449219c0-4.136719-3.351562-7.492187-7.488281-7.492187-4.140625 0-7.492187 3.355468-7.492187 7.492187v18.835938h-9.195313c-4.136719 0-7.492187 3.351562-7.492187 7.492187 0 4.136719 3.355468 7.488282 7.492187 7.488282h9.195313v75.257812h-9.195313c-4.136719 0-7.492187 3.351562-7.492187 7.492188 0 4.136718 3.355468 7.492187 7.492187 7.492187h9.195313v29.882813c0 4.140624 3.351562 7.492187 7.492187 7.492187h33.308594v9.195313c0 4.136718 3.351562 7.488281 7.492187 7.488281 4.136719 0 7.488282-3.351563 7.488282-7.488281v-9.195313h75.257812v9.195313c0 4.136718 3.355469 7.488281 7.492188 7.488281 4.136718 0 7.492187-3.351563 7.492187-7.488281v-9.195313h75.253906v9.195313c0 4.136718 3.355469 7.488281 7.492188 7.488281s7.492187-3.351563 7.492187-7.488281v-9.195313h75.253906v9.195313c0 4.136718 3.355469 7.488281 7.492188 7.488281 4.140625 0 7.492188-3.351563 7.492188-7.488281v-9.195313h75.257812v9.195313c0 4.136718 3.351562 7.488281 7.488281 7.488281 4.140625 0 7.492188-3.351563 7.492188-7.488281v-9.195313h15.3125c4.140625 0 7.492187-3.351563 7.492187-7.492187 0-4.136719-3.355468-7.492188-7.492187-7.492188zm0 0"/><path d="m47.535156 450.425781h-33.492187c-7.742188 0-14.042969 6.300781-14.042969 14.042969v33.488281c0 7.742188 6.300781 14.042969 14.042969 14.042969h33.492187c7.742188 0 14.039063-6.300781 14.039063-14.042969v-33.488281c0-7.746094-6.296875-14.042969-14.039063-14.042969zm-.941406 46.589844h-31.609375v-31.609375h31.609375zm0 0"/><path d="m51.734375 213.898438c-4.136719 0-7.492187 3.351562-7.492187 7.492187 0 4.136719 3.355468 7.492187 7.492187 7.492187h9.195313v21.75c0 4.136719 3.351562 7.492188 7.492187 7.492188 4.136719 0 7.488281-3.355469 7.488281-7.492188v-243.140624c0-4.140626-3.351562-7.492188-7.488281-7.492188-4.140625 0-7.492187 3.351562-7.492187 7.492188v25.929687h-9.195313c-4.136719 0-7.492187 3.351563-7.492187 7.488281 0 4.140625 3.355468 7.492188 7.492187 7.492188h9.195313v75.257812h-9.195313c-4.136719 0-7.492187 3.351563-7.492187 7.492188 0 4.136718 3.355468 7.488281 7.492187 7.488281h9.195313v75.257813zm0 0"/><path d="m114.214844 409.359375h62.503906c5.355469 6.648437 13.554688 10.917969 22.742188 10.917969 9.183593 0 17.382812-4.265625 22.738281-10.917969h157.738281c.105469 0 .210938-.011719.316406-.015625.105469.003906.210938.015625.316406.015625h85.246094c6.882813 0 12.484375-5.601563 12.484375-12.488281v-327.921875c13.78125-2.328125 24.316407-14.339844 24.316407-28.773438 0-16.09375-13.089844-29.1875-29.1875-29.1875-13.765626 0-25.332032 9.585938-28.386719 22.433594h-64.472657c-.105468 0-.210937.007813-.316406.015625-.105468-.007812-.210937-.015625-.316406-.015625h-21.746094c-4.140625 0-7.492187 3.351563-7.492187 7.488281 0 4.140625 3.351562 7.492188 7.492187 7.492188h14.253906v75.257812h-75.253906v-75.257812h26.410156c4.140626 0 7.492188-3.351563 7.492188-7.492188 0-4.136718-3.351562-7.488281-7.492188-7.488281h-209.386718c-6.886719 0-12.484375 5.597656-12.484375 12.484375v350.964844c0 6.886718 5.601562 12.488281 12.484375 12.488281zm349.105468-285.699219h-14.136718c1.046875-1.59375 2.082031-3.1875 3.078125-4.792968 4.164062-6.703126 7.84375-13.59375 11.058593-20.601563zm10.109376-97.691406c7.835937 0 14.207031 6.375 14.207031 14.207031s-6.371094 14.203125-14.207031 14.203125c-7.832032 0-14.203126-6.371094-14.203126-14.203125s6.371094-14.207031 14.203126-14.207031zm-85.367188 22.433594h57.371094c2.164062 7.351562 7.144531 13.503906 13.695312 17.199218-4.007812 15.535157-10.609375 30.894532-19.59375 45.359376-2.660156 4.285156-5.550781 8.515624-8.621094 12.699218h-42.851562zm0 90.238281h30.800781c-9.007812 10.261719-19.285156 20.167969-30.800781 29.671875zm0 48.808594c19.878906-15.210938 36.695312-31.542969 50.285156-48.808594h24.972656v75.257813h-75.257812zm0 41.433593h75.257812v75.253907h-75.257812zm0 90.234376h75.257812v75.257812h-75.257812zm-105.855469 75.257812h-53.75c.121094-1.078125.191407-2.175781.191407-3.285156 0-11.960938-7.238282-22.261719-17.558594-26.765625 4.558594-15.332031 11.117187-30.582031 19.363281-45.207031h51.753906zm0-90.238281h-42.578125c11.898438-17.933594 26.324219-34.53125 42.578125-48.691407zm90.238281-90.238281h-24.84375c8.34375-4.722657 16.71875-9.6875 24.84375-15.179688zm-75.253906-75.257813h75.253906v41.777344c-1.875 1.363281-3.773437 2.71875-5.703124 4.0625-12.195313 8.507812-25.425782 15.828125-38.21875 22.90625-3.871094 2.144531-7.773438 4.304687-11.675782 6.511719h-19.65625zm0 105.050781c7.570313-5.335937 15.46875-10.136718 23.617188-14.808594h51.636718v75.253907h-75.253906zm0 75.425782h75.253906v75.257812h-75.253906zm-90.242187-270.714844h75.257812v75.257812h-75.257812zm0 90.238281h75.257812v75.257813h-75.257812zm0 90.242187h75.257812v7.226563c-2.5625 1.949219-5.089843 3.964844-7.570312 6.070313-20.664063 17.554687-38.636719 38.871093-52.730469 61.957031h-14.957031zm0 90.234376h6.488281c-2.308594 4.429687-4.476562 8.90625-6.488281 13.417968zm6.714843 71.972656c0 7.832031-6.371093 14.203125-14.203124 14.203125-7.835938 0-14.207032-6.371094-14.207032-14.203125 0-7.835938 6.371094-14.207032 14.207032-14.207032 7.832031 0 14.203124 6.371094 14.203124 14.207032zm-96.953124-342.6875h75.257812v75.257812h-75.257812zm0 90.238281h75.257812v75.257813h-75.257812zm0 90.242187h75.257812v75.253907h-75.257812zm0 90.234376h75.257812v43.761718c-12.476562 3.316406-21.699219 14.703125-21.699219 28.207032 0 1.113281.070313 2.207031.191407 3.289062h-53.75zm0 0"/></svg>